<svg width="20" height="20" viewBox="0 0 20 20" fill="none" xmlns="http://www.w3.org/2000/svg">
<g clip-path="url(#clip0)">
<path d="M8.43969 19.8951L16.1541 6.61218C16.3287 6.31144 16.081 5.94136 15.7364 5.98823L10.605 6.68569L11.8311 0.248896C11.8724 0.0319037 11.5926 -0.0924322 11.4593 0.0836224L3.87434 10.0957C3.65341 10.3873 3.88735 10.802 4.25118 10.7637L9.90852 10.1682L8.05387 19.7505C8.00915 19.9817 8.32145 20.0987 8.43969 19.8951Z" fill="#FFDC64"/>
<path d="M6.2463 9.38622C6.10462 9.39754 6.01051 9.24266 6.08583 9.12215L11.7569 0.0484807C11.6725 -0.0182771 11.5397 -0.022574 11.4593 0.0835979L3.87434 10.0957C3.65341 10.3873 3.88735 10.802 4.25118 10.7637L9.90852 10.1682L8.05387 19.7505C8.02887 19.8798 8.11606 19.9707 8.21798 19.9925L11.3961 9.93594C11.545 9.46458 11.1692 8.99235 10.6764 9.0318L6.2463 9.38622Z" fill="#FFC850"/>
</g>
<defs>
<clipPath id="clip0">
<rect width="20" height="20" fill="white"/>
</clipPath>
</defs>
</svg>
