<svg width="20" height="20" viewBox="0 0 20 20" fill="none" xmlns="http://www.w3.org/2000/svg">
<g clip-path="url(#clip0)">
<path d="M15.105 11.8907C13.7149 11.8907 12.584 13.0216 12.584 14.4118C12.584 15.8019 13.7149 16.9328 15.105 16.9328C16.4954 16.9328 17.6261 15.8019 17.6261 14.4118C17.6261 13.0216 16.4952 11.8907 15.105 11.8907ZM15.105 15.6723C14.4099 15.6723 13.8445 15.1069 13.8445 14.4118C13.8445 13.7166 14.4099 13.1512 15.105 13.1512C15.8002 13.1512 16.3656 13.7166 16.3656 14.4118C16.3656 15.1069 15.8002 15.6723 15.105 15.6723Z" fill="#C4C4C4"/>
<path d="M6.49161 11.8907C5.10149 11.8907 3.9706 13.0216 3.9706 14.4118C3.9706 15.8019 5.10149 16.9328 6.49161 16.9328C7.88173 16.9328 9.01263 15.8019 9.01263 14.4118C9.01263 13.0216 7.88173 11.8907 6.49161 11.8907ZM6.49161 15.6723C5.79646 15.6723 5.2311 15.1069 5.2311 14.4118C5.2311 13.7166 5.79646 13.1512 6.49161 13.1512C7.18657 13.1512 7.75212 13.7166 7.75212 14.4118C7.75212 15.1069 7.18677 15.6723 6.49161 15.6723Z" fill="#C4C4C4"/>
<path d="M16.8027 4.6748C16.6956 4.46199 16.4777 4.32773 16.2395 4.32773H12.9202V5.58824H15.8508L17.567 9.00167L18.6935 8.43527L16.8027 4.6748Z" fill="#C4C4C4"/>
<path d="M13.2143 13.8025H8.4454V15.063H13.2143V13.8025Z" fill="#C4C4C4"/>
<path d="M4.60083 13.8025H2.41599C2.06786 13.8025 1.78575 14.0847 1.78575 14.4328C1.78575 14.7809 2.0679 15.063 2.41599 15.063H4.60087C4.94899 15.063 5.2311 14.7809 5.2311 14.4328C5.2311 14.0846 4.94895 13.8025 4.60083 13.8025Z" fill="#C4C4C4"/>
<path d="M19.8677 9.94957L18.628 8.35293C18.5089 8.19914 18.325 8.10921 18.1303 8.10921H13.5504V3.69746C13.5504 3.34933 13.2683 3.06722 12.9202 3.06722H2.41599C2.06786 3.06722 1.78575 3.34937 1.78575 3.69746C1.78575 4.04554 2.0679 4.32769 2.41599 4.32769H12.2899V8.73945C12.2899 9.08757 12.5721 9.36968 12.9202 9.36968H17.8217L18.7395 10.552V13.8025H16.9958C16.6477 13.8025 16.3656 14.0846 16.3656 14.4327C16.3656 14.7808 16.6477 15.0629 16.9958 15.0629H19.3697C19.7179 15.0629 20 14.7808 20 14.4327V10.3361C20 10.1962 19.9534 10.0601 19.8677 9.94957Z" fill="#C4C4C4"/>
<path d="M4.55882 10.6093H1.65964C1.31151 10.6093 1.0294 10.8914 1.0294 11.2395C1.0294 11.5876 1.31155 11.8697 1.65964 11.8697H4.55878C4.9069 11.8697 5.18901 11.5876 5.18901 11.2395C5.18905 10.8914 4.9069 10.6093 4.55882 10.6093Z" fill="#C4C4C4"/>
<path d="M6.0084 8.13023H0.630234C0.282148 8.13023 0 8.41238 0 8.76051C0 9.10863 0.282148 9.39074 0.630234 9.39074H6.0084C6.35652 9.39074 6.63863 9.10859 6.63863 8.76051C6.63863 8.41242 6.35652 8.13023 6.0084 8.13023Z" fill="#C4C4C4"/>
<path d="M7.0378 5.65125H1.65964C1.31151 5.65125 1.0294 5.9334 1.0294 6.28149C1.0294 6.62961 1.31155 6.91172 1.65964 6.91172H7.0378C7.38593 6.91172 7.66804 6.62957 7.66804 6.28149C7.66808 5.9334 7.38593 5.65125 7.0378 5.65125Z" fill="#C4C4C4"/>
</g>
<defs>
<clipPath id="clip0">
<rect width="20" height="20" fill="white"/>
</clipPath>
</defs>
</svg>
